Coordinates
version=1
nRows=22
nColumns=24
inDegrees=yes

Units are S.I. units (second, meters, Newtons, ...)
Angles are in degrees.

endheader
time	pelvis_tilt	pelvis_list	pelvis_rotation	pelvis_tx	pelvis_ty	pelvis_tz	hip_flexion_r	hip_adduction_r	hip_rotation_r	knee_angle_r	ankle_angle_r	subtalar_angle_r	mtp_angle_r	hip_flexion_l	hip_adduction_l	hip_rotation_l	knee_angle_l	ankle_angle_l	subtalar_angle_l	mtp_angle_l	lumbar_extension	lumbar_bending	lumbar_rotation
      3.05500000	     -1.09701068	      1.33496791	    363.86888182	      0.22536277	      1.40037765	     -1.01865694	      5.00733549	      2.82195168	     -1.19608993	     -6.96819587	     -3.92168204	    -10.84067547	      4.74829487	     11.50842028	      1.27911167	      4.17940891	    -50.64122745	     -3.47464614	     14.92157085	     44.29469485	      4.10483740	      1.06544041	    107.25176398
      3.06000000	     -1.17935052	      1.52876166	    363.83737206	      0.22979208	      1.40075547	     -1.01814763	      4.77398430	      2.65907573	     -1.06514707	     -6.91375477	     -3.75478969	    -10.87757921	      4.69001998	     12.09360266	      1.46729843	      3.95696736	    -50.42576016	     -3.05515390	     14.54701994	     43.93750920	      4.16960181	      0.81208306	    107.30753264
      3.06500000	     -1.32140467	      1.69297504	    363.83260548	      0.23422086	      1.40104201	     -1.01771367	      4.61250399	      2.51942348	     -0.96541358	     -6.87278174	     -3.57814281	    -10.91157144	      4.47782963	     12.74857743	      1.63751843	      3.76783365	    -50.20629580	     -2.52707533	     14.32072002	     43.16077862	      4.31525719	      0.60439434	    107.48431816
      3.07000000	     -1.40021239	      1.88948722	    363.81055511	      0.23857614	      1.40138207	     -1.01723364	      4.38340700	      2.35093482	     -0.82404130	     -6.82756071	     -3.39443226	    -10.96200343	      4.42443428	     13.30415951	      1.82809233	      3.54079758	    -49.87619406	     -2.13850851	     13.87296424	     42.80780154	      4.36223333	      0.34469047	    107.50305563
      3.07500000	     -1.54875325	      2.04287633	    363.80771555	      0.24293047	      1.40162357	     -1.01683012	      4.23879879	      2.21953354	     -0.70825611	     -6.79757203	     -3.20166526	    -10.97619463	      4.17528274	     13.94354245	      1.98417365	      3.33695620	    -49.55289858	     -1.63064657	     13.59982816	     41.96479911	      4.50383148	      0.14756368	    107.63668006
      3.08000000	     -1.61434709	      2.22085094	    363.81160983	      0.24724744	      1.40194299	     -1.01643055	      3.98893815	      2.06500944	     -0.60941236	     -6.73231686	     -3.05633295	    -11.01572217	      4.09168941	     14.46034640	      2.16329808	      3.13001817	    -49.12042571	     -1.26383883	     13.08382090	     41.55227346	      4.53807550	     -0.08549828	    107.67709509
      3.08500000	     -1.73188764	      2.38821921	    363.80900381	      0.25155785	      1.40218123	     -1.01604980	      3.80914191	      1.91773272	     -0.50088287	     -6.69277613	     -2.87720166	    -11.04637982	      3.97986675	     15.02601769	      2.33204770	      2.90897622	    -48.65595002	     -0.88572553	     12.61207621	     41.02601217	      4.63096326	     -0.30348239	    107.74359857
      3.09000000	     -1.85833266	      2.53970416	    363.81756419	      0.25583404	      1.40237596	     -1.01569182	      3.65160140	      1.78680028	     -0.43099356	     -6.67726280	     -2.64246830	    -11.06654571	      3.79592960	     15.59565466	      2.48507323	      2.69530238	    -48.16092356	     -0.46620955	     12.24973558	     40.32750700	      4.73185964	     -0.50316272	    107.84283385
      3.09500000	     -1.94787273	      2.70994384	    363.80074045	      0.26007148	      1.40260624	     -1.01529149	      3.45018444	      1.63890355	     -0.31342729	     -6.64178785	     -2.47249957	    -11.08369312	      3.73816028	     16.09565292	      2.64324417	      2.44176901	    -47.57220683	     -0.18206283	     11.77344116	     39.94520874	      4.77335404	     -0.73304094	    107.84104643
      3.10000000	     -2.05739002	      2.86473734	    363.80548950	      0.26431126	      1.40277214	     -1.01496850	      3.27411164	      1.50145621	     -0.26630489	     -6.61906896	     -2.22828809	    -11.04546165	      3.54293237	     16.61370547	      2.79712645	      2.20933593	    -46.97266515	      0.18242740	     11.44915030	     39.21372954	      4.84503509	     -0.93246371	    107.91482132
      3.10500000	     -2.13391612	      3.02494983	    363.79522332	      0.26850426	      1.40294722	     -1.01459629	      3.06435915	      1.36397189	     -0.17927162	     -6.58811597	     -2.03851994	    -11.08111928	      3.52273283	     17.07373232	      2.94328942	      1.95152198	    -46.29058711	      0.41400031	     11.00374559	     38.92385735	      4.86286415	     -1.15559149	    107.92093776
      3.11000000	     -2.24357018	      3.16296051	    363.79495034	      0.27273159	      1.40306950	     -1.01432305	      2.89247294	      1.24024221	     -0.14851874	     -6.56504679	     -1.80700297	    -11.00144640	      3.37242108	     17.55604246	      3.08128717	      1.71371224	    -45.58453960	      0.71276293	     10.69105332	     38.26150714	      4.93736404	     -1.32707434	    108.00352791
      3.11500000	     -2.32654954	      3.32218731	    363.76944971	      0.27690394	      1.40319265	     -1.01396061	      2.69891732	      1.10288527	     -0.06210953	     -6.54472472	     -1.60682662	    -11.02954253	      3.37124245	     17.98623027	      3.22054035	      1.43183173	    -44.79823231	      0.88755741	     10.34439950	     38.01346997	      4.95573719	     -1.54570068	    108.00997476
      3.12000000	     -2.41936936	      3.45701735	    363.74630018	      0.28111146	      1.40328234	     -1.01370134	      2.51585426	      0.98243089	     -0.02666842	     -6.52483753	     -1.39720534	    -10.96395924	      3.31547087	     18.40853011	      3.34781404	      1.16428953	    -43.97777502	      1.10596194	     10.01010028	     37.55173361	      5.00935325	     -1.70198174	    108.12917162
      3.12500000	     -2.49511689	      3.61040558	    363.71369866	      0.28527838	      1.40336394	     -1.01334985	      2.31765862	      0.85050938	      0.04844760	     -6.50610750	     -1.18521155	    -10.96255297	      3.31520446	     18.79093482	      3.47345889	      0.86472969	    -43.08933015	      1.23064039	      9.83705396	     37.30635627	      5.01992728	     -1.91535063	    108.12575421
      3.13000000	     -2.57804034	      3.75685618	    363.66185955	      0.28945715	      1.40341480	     -1.01304903	      2.13398922	      0.72091203	      0.11868334	     -6.49611048	     -0.96664597	    -10.91831221	      3.30920044	     19.15789269	      3.59430258	      0.54964874	    -42.15288866	      1.35280834	      9.65057366	     36.99469413	      5.04755316	     -2.09208812	    108.20737805
      3.13500000	     -2.66176717	      3.88605284	    363.60903938	      0.29366465	      1.40343835	     -1.01279158	      1.95342749	      0.60592349	      0.15867929	     -6.49234090	     -0.72918677	    -10.80909397	      3.25242026	     19.50375293	      3.70078062	      0.23977059	    -41.17585556	      1.53306662	      9.55887866	     36.55913669	      5.08985578	     -2.23751923	    108.36448396
      3.14000000	     -2.74839946	      4.02509296	    363.57383490	      0.29779503	      1.40343123	     -1.01252719	      1.78274583	      0.48194509	      0.21731136	     -6.49179065	     -0.55277572	    -10.81689123	      3.26812736	     19.83943723	      3.82001341	     -0.05469507	    -40.13725468	      1.59876584	      9.54855050	     36.42289084	      5.10309672	     -2.41860467	    108.33245146
      3.14500000	     -2.78453479	      4.15795875	    363.48398881	      0.30199262	      1.40345265	     -1.01222658	      1.55278399	      0.36857127	      0.29428165	     -6.48290939	     -0.30229644	    -10.71401240	      3.25410137	     20.07915721	      3.90617294	     -0.42728237	    -39.03590428	      1.68184895	      9.57652208	     36.11805841	      5.08951655	     -2.56767120	    108.51162836
      3.15000000	     -2.86929139	      4.28561807	    363.41492801	      0.30613950	      1.40339955	     -1.01196351	      1.38821140	      0.25664555	      0.38359540	     -6.49148918	     -0.09155031	    -10.70246916	      3.28429384	     20.36310257	      3.99938902	     -0.77667878	    -37.89148742	      1.67564025	      9.65583958	     35.99534540	      5.11095695	     -2.72584002	    108.54047398
      3.15500000	     -2.93369253	      4.41961954	    363.31208197	      0.31032526	      1.40335460	     -1.01171616	      1.20211471	      0.13499143	      0.48497693	     -6.49933678	      0.10973463	    -10.62756583	      3.30739925	     20.58196448	      4.09189371	     -1.15705185	    -36.67064053	      1.70800086	      9.79772933	     35.86852523	      5.12440656	     -2.86400358	    108.70092894
      3.16000000	     -2.99187917	      4.54242950	    363.23105920	      0.31446860	      1.40327374	     -1.01150699	      1.01196322	      0.02532656	      0.57250777	     -6.51009126	      0.33363881	    -10.60302075	      3.33970507	     20.78145370	      4.18219691	     -1.51807283	    -35.40928623	      1.66375711	      9.98747325	     35.79041209	      5.11629400	     -2.99691501	    108.78237677
